<svg id="Capa_1" enable-background="new 0 0 512 512" height="512" viewBox="0 0 512 512" width="512" xmlns="http://www.w3.org/2000/svg"><g><path d="m297.868 220.347c0-9.881-3.85-19.169-10.839-26.156-14.429-14.418-37.899-14.417-52.323.001l-24.172 24.163-24.172-24.163c-14.427-14.419-37.899-14.42-52.323-.001-6.989 6.986-10.838 16.275-10.838 26.156s3.849 19.169 10.838 26.155l24.168 24.157-24.168 24.157c-6.989 6.986-10.838 16.275-10.838 26.156 0 9.88 3.849 19.169 10.839 26.156 6.988 6.984 16.279 10.831 26.161 10.831 9.883 0 19.174-3.847 26.161-10.832l24.173-24.162 24.172 24.162c6.988 6.985 16.279 10.833 26.162 10.833s19.174-3.847 26.161-10.831c6.989-6.986 10.839-16.275 10.839-26.155 0-9.881-3.85-19.169-10.839-26.156l-24.167-24.157 24.167-24.157c6.989-6.988 10.838-16.276 10.838-26.157zm-24.977 12.009-31.243 31.23c-1.876 1.875-2.931 4.42-2.931 7.073s1.054 5.197 2.931 7.073l31.243 31.23c3.21 3.208 4.978 7.474 4.978 12.01s-1.768 8.802-4.978 12.01c-3.211 3.209-7.48 4.977-12.022 4.977s-8.811-1.768-12.022-4.978l-31.242-31.229c-1.952-1.952-4.511-2.927-7.069-2.927s-5.117.976-7.069 2.927l-31.243 31.229c-3.21 3.209-7.479 4.977-12.021 4.977s-8.812-1.768-12.022-4.977c-3.209-3.208-4.977-7.474-4.977-12.01 0-4.537 1.768-8.802 4.977-12.01l31.244-31.23c1.876-1.875 2.931-4.42 2.931-7.073s-1.054-5.197-2.931-7.073l-31.244-31.23c-3.209-3.208-4.977-7.473-4.977-12.01s1.768-8.802 4.978-12.01c6.628-6.626 17.415-6.626 24.044.001l31.242 31.229c3.905 3.903 10.234 3.903 14.14 0l31.242-31.229c6.628-6.626 17.415-6.626 24.044 0 3.21 3.208 4.978 7.474 4.978 12.01s-1.771 8.802-4.981 12.01z"/><path d="m495.955 220.119c10.51-18.544 16.045-39.534 16.045-60.987 0-68.276-55.55-123.822-123.829-123.822-35.254 0-68.059 14.117-91.073 38.961-26.418-11.963-55.727-18.626-86.564-18.626-116.089 0-210.534 94.44-210.534 210.522 0 37.514 9.953 74.192 28.824 106.368l-13.911 51.913c-.872 3.254-.047 6.728 2.194 9.243 2.242 2.515 5.599 3.729 8.931 3.238l51.189-7.587 5.858 4.388c36.9 28.104 80.971 42.96 127.449 42.96 111.818 0 203.555-87.619 210.154-197.802 15.076-4.006 29.015-10.974 42.382-21.155l1.919-1.438 27.273 4.042c3.328.491 6.688-.723 8.931-3.238 2.241-2.515 3.066-5.989 2.194-9.243zm-285.421 236.571c-42.062 0-81.943-13.441-115.395-38.919l-9.259-6.935c-1.74-1.304-3.846-1.996-5.995-1.996-.488 0-.978.036-1.466.108l-40.245 5.965 11.066-41.298c.711-2.654.299-5.484-1.14-7.826-18.383-29.904-28.1-64.352-28.1-99.622 0-105.055 85.473-190.523 190.534-190.523s190.534 85.468 190.534 190.523-85.473 190.523-190.534 190.523zm265.016-235.449 4.577 17.08-16.33-2.42c-2.641-.39-5.326.289-7.461 1.888l-5.32 3.985c-9.662 7.359-19.59 12.704-30.105 16.184-2.866-74.363-44.491-138.959-105.199-174.113 18.958-18.255 44.783-28.535 72.46-28.535 57.251 0 103.828 46.575 103.828 103.822 0 19.22-5.294 37.991-15.31 54.284-1.439 2.341-1.851 5.171-1.14 7.825z"/></g></svg>