<svg id="Layer_1" enable-background="new 0 0 510 510" height="512" viewBox="0 0 510 510" width="512" xmlns="http://www.w3.org/2000/svg"><g><path d="m499.015 93.574c-60.168-16.713-123.7-17.077-184.015-1.089-60.314-15.987-123.847-15.624-184.015 1.089l-10.985 3.051v331.136l19.015-5.281c56.252-15.627 115.719-15.627 171.971 0l4.015 1.115 4.015-1.115c56.252-15.627 115.719-15.627 171.971 0l19.013 5.281v-331.136zm-349.015 295.285v-269.223c49.293-11.834 100.707-11.828 150 .007v269.226c-24.706-5.4-49.852-8.109-75-8.109s-50.293 2.699-75 8.099zm330 0c-49.412-10.799-100.588-10.797-150 .002v-269.218c49.293-11.835 100.706-11.842 150-.007z"/><path d="m54.743 93.027h-19.486c-19.441 0-35.257 15.816-35.257 35.257v255.956l45 45 45-45v-255.956c0-19.441-15.816-35.257-35.257-35.257zm5.257 278.787-15 15-15-15v-243.53c0-2.899 2.358-5.258 5.257-5.258h19.485c2.899 0 5.257 2.358 5.257 5.258v243.53z"/><path d="m270 249.565c0-39.263-31.972-79.281-33.333-80.966l-11.667-14.439-11.667 14.438c-1.361 1.685-33.333 41.704-33.333 80.967 0 35.986 13.753 54.144 30 60.616v27.846h30v-27.846c16.247-6.473 30-24.63 30-60.616zm-45 33.462c-13.918 0-15-25.612-15-33.462 0-14.845 7.54-31.819 15-44.706 7.462 12.89 15 29.862 15 44.706 0 7.849-1.082 33.462-15 33.462z"/><path d="m360 176.893h90v30h-90z"/><path d="m360 236.893h90v30h-90z"/><path d="m360 296.893h90v30h-90z"/></g></svg>