<svg id="Capa_1" enable-background="new 0 0 512 512" height="512" viewBox="0 0 512 512" width="512" xmlns="http://www.w3.org/2000/svg"><g><circle cx="502" cy="343.5" r="10"/><path d="m502 308.5c5.52 0 10-4.489 10-10v-65c0-2.64-1.07-5.21-2.93-7.069-1.86-1.87-4.44-2.931-7.07-2.931h-190c-2.63 0-5.21 1.061-7.07 2.931-.787.787-1.423 1.708-1.906 2.703l-61.424-61.424 40.15-40.159c2.95-2.94 5.24-6.391 6.8-10.24 1.51-3.73 2.28-7.65 2.27-11.65.01-4-.76-7.92-2.27-11.64-1.56-3.851-3.85-7.3-6.8-10.24-3.67-3.67-8.24-6.38-13.23-7.83l-67.96-19.79c-.92-.26-1.86-.399-2.8-.399-4.42 0-8.36 2.96-9.6 7.21-.75 2.56-.45 5.26.83 7.609 1.29 2.34 3.41 4.04 5.97 4.79l67.97 19.78c1.77.52 3.39 1.479 4.68 2.77 2.09 2.091 3.2 4.771 3.21 7.74-.01 2.98-1.12 5.66-3.21 7.75l-47.22 47.23c-1.89 1.88-2.93 4.39-2.93 7.069 0 2.67 1.04 5.181 2.93 7.07l97.4 97.4c1.43 1.449 2.2 3.29 2.21 5.34-.01 2.05-.78 3.899-2.21 5.34l-43.43 43.42c-1.44 1.44-3.29 2.2-5.34 2.22-2.05-.02-3.89-.779-5.33-2.22l-97.41-97.4c-1.89-1.89-4.4-2.93-7.07-2.93s-5.18 1.04-7.07 2.93l-47.23 47.23c-2.09 2.09-4.77 3.19-7.74 3.21-2.97-.02-5.65-1.12-7.74-3.21-1.31-1.3-2.26-2.92-2.77-4.68l-66.17-227.27c-.33-1.109-.49-2.26-.49-3.42 0-3.22 1.24-6.26 3.49-8.56.03-.03.07-.07.1-.101 2.3-2.31 5.38-3.58 8.65-3.58 1.15 0 2.3.16 3.42.48l72.89 21.229c.92.261 1.86.4 2.8.4 4.42 0 8.36-2.97 9.6-7.21 1.54-5.29-1.51-10.85-6.79-12.39-.01 0-.01-.011-.02-.011l-72.89-21.217c-2.93-.85-5.96-1.28-9.02-1.28-4.22 0-8.34.811-12.25 2.42-3.96 1.631-7.5 3.99-10.54 7.021-3.03 3.03-5.39 6.58-7.02 10.54-1.61 3.91-2.42 8.03-2.42 12.259 0 3.05.43 6.08 1.29 9.01l66.16 227.271c1.45 4.99 4.16 9.56 7.83 13.229 2.94 2.94 6.38 5.23 10.22 6.79 3.72 1.511 7.67 2.28 11.67 2.28 3.99 0 7.94-.77 11.66-2.28 3.84-1.569 7.28-3.85 10.22-6.79l40.16-40.159 90.33 90.34c5.12 5.13 12.2 8.069 19.43 8.069h.1c3.55 0 7.03-.689 10.34-2.029 3.42-1.391 6.48-3.431 9.09-6.04l13.5-13.5v166.569c0 2.63 1.07 5.21 2.93 7.07s4.44 2.93 7.07 2.93h190c2.63 0 5.21-1.069 7.07-2.93s2.93-4.44 2.93-7.07v-105c0-5.52-4.49-10.01-10-10.01s-10 4.49-10 10.01v95h-170v-176.57l9.93-9.93c5.14-5.13 8.08-12.229 8.07-19.479.01-7.25-2.93-14.351-8.07-19.48l-9.93-9.93v-4.61h170v55c0 5.51 4.49 9.999 10 9.999z"/><path d="m82.479 141.125c-5.294 1.572-8.312 7.139-6.74 12.433l19 64c1.29 4.346 5.27 7.157 9.583 7.157.942 0 1.9-.135 2.85-.416 5.294-1.572 8.312-7.139 6.74-12.433l-19-64c-1.573-5.295-7.138-8.313-12.433-6.741z"/><path d="m417 386.963c0-12.281 5.735-23.866 15.735-31.785 11.118-8.805 17.158-22.622 16.156-36.961-1.433-20.503-17.618-37.486-37.648-39.505-22.596-2.295-42.734 13.837-45.843 36.691-.266 1.95-.4 3.945-.4 5.928 0 5.522 4.477 10 10 10s10-4.478 10-10c0-1.084.073-2.172.217-3.232 1.648-12.119 12.198-20.684 24.02-19.488 10.47 1.056 18.94 10.084 19.703 21.001.542 7.749-2.682 15.184-8.622 19.888-14.819 11.733-23.318 29.033-23.318 47.463v1.534c0 5.522 4.477 10 10 10s10-4.478 10-10z"/><circle cx="407" cy="428.497" r="10"/><circle cx="154.55" cy="53.19" r="10"/></g></svg>