<svg fill="#000000" xmlns="http://www.w3.org/2000/svg"  viewBox="0 0 50 50" width="50px" height="50px"><path fill="none" stroke="#000000" stroke-miterlimit="10" stroke-width="2" d="M45,24v19c0,1.105-0.895,2-2,2H7	c-1.105,0-2-0.895-2-2V24"/><path fill="none" stroke="#000000" stroke-miterlimit="10" stroke-width="2" d="M14,19.5c0,3.038-2.462,5.5-5.5,5.5	S3,22.538,3,19.5L6.392,7.202C6.751,5.901,7.935,5,9.284,5h31.431c1.35,0,2.533,0.901,2.892,2.202L47,19.5	c0,3.038-2.462,5.5-5.5,5.5S36,22.538,36,19.5"/><path fill="none" stroke="#000000" stroke-miterlimit="10" stroke-width="2" d="M25,19.5c0,3.038-2.462,5.5-5.5,5.5	S14,22.538,14,19.5L16,5"/><path fill="none" stroke="#000000" stroke-miterlimit="10" stroke-width="2" d="M34,5l2,14.5c0,3.038-2.462,5.5-5.5,5.5	S25,22.538,25,19.5V5"/><line x1="3" x2="47" y1="19" y2="19" fill="none" stroke="#000000" stroke-miterlimit="10" stroke-width="2"/><path d="M41.975,35H36v2h3.724c-0.621,1.742-2.271,3-4.224,3c-2.481,0-4.5-2.019-4.5-4.5s2.019-4.5,4.5-4.5	c1.496,0,2.814,0.741,3.633,1.867l1.432-1.432C39.372,29.953,37.546,29,35.5,29c-3.584,0-6.5,2.916-6.5,6.5s2.916,6.5,6.5,6.5	s6.5-2.916,6.5-6.5C42,35.331,41.987,35.166,41.975,35z"/></svg>