<svg height="512" viewBox="0 0 46 60" width="512" xmlns="http://www.w3.org/2000/svg"><g id="Page-1" fill="none" fill-rule="evenodd"><g id="009---Weight-Loss-Plan" fill="rgb(0,0,0)" fill-rule="nonzero" transform="translate(-1 -1)"><path id="Shape" d="m35 56c0 .5522847.4477153 1 1 1h3c.5522847 0 1-.4477153 1-1v-3c0-.5522847-.4477153-1-1-1s-1 .4477153-1 1v2h-2c-.5522847 0-1 .4477153-1 1z"/><path id="Shape" d="m24 9c.5522847 0 1-.44771525 1-1v-2c0-.55228475-.4477153-1-1-1s-1 .44771525-1 1v2c0 .55228475.4477153 1 1 1z"/><path id="Shape" d="m20 14h8c.5522847 0 1-.4477153 1-1s-.4477153-1-1-1h-8c-.5522847 0-1 .4477153-1 1s.4477153 1 1 1z"/><path id="Shape" d="m2.493 53.765c.5.3 1 .547 1.507.778v2.457c0 2.209139 1.790861 4 4 4h32c2.209139 0 4-1.790861 4-4v-6.229c.164.089.329.164.493.26.5268766.3601944 1.2078227.4057696 1.778.119.4721653-.2822784.7519338-.8003681.729-1.35v-8c-.0616107-1.0251912-.6186818-1.9561304-1.493-2.495-.5-.3-1-.552-1.507-.783v-22.522c0-2.209139-1.790861-4-4-4h-5.029c-.139138-1.7003093-1.3454232-3.12332377-3-3.539l-1.34-.336c-.9704963-.24466166-1.6456029-1.12424568-1.631-2.125.0029855-2.62532562-2.0249688-4.80584757-4.643619-4.99296921-2.6186503-.18712164-4.9360449 1.68289347-5.306381 4.28196921-.0418583.29035128-.058587.58377272-.05.877.0217463.89979942-.5822891 1.69480123-1.455 1.915l-1.52.38c-1.6545768.41567623-2.860862 1.8386907-3 3.539h-5.025c-2.209139 0-4 1.790861-4 4v26.3c-.165-.089-.33-.165-.495-.261-.52687655-.3601944-1.2078227-.4057696-1.778-.119-.47074979.2824423-.74960021.7994854-.727 1.348v8c.06130808 1.0258109.61837325 1.9574866 1.493 2.497zm39.507 3.235c0 1.1045695-.8954305 2-2 2h-32c-1.1045695 0-2-.8954305-2-2v-1.693c1.52668281.4667627 3.11456003.7027029 4.711.7 4.618 0 9.185-1.786 13.653-3.535 6.088-2.382 11.88-4.648 17.636-2.6zm-27-44.659c-.00032-.9180226.624379-1.7183796 1.515-1.941l1.519-.38c1.7835978-.45246039 3.0154807-2.08057255 2.966-3.92-.0056441-.17949924.0040578-.35915254.029-.537.1993762-1.32848566 1.2541502-2.36449727 2.586-2.54.1277892-.0150079.2563329-.02268714.385-.023.7320034-.00237612 1.4391528.26538638 1.986.752.6484419.57583759 1.0178388 1.40279118 1.014 2.27-.0097687 1.91232645 1.290015 3.58312289 3.146 4.044l1.339.335c.8902592.2225301 1.5148611 1.0223502 1.515 1.94v2.659c0 .5522847-.4477153 1-1 1h-16c-.5522847 0-1-.4477153-1-1zm-9 3.659c0-1.1045695.8954305-2 2-2h5v1c0 1.6568542 1.3431458 3 3 3h16c1.6568542 0 3-1.3431458 3-3v-1h5c1.1045695 0 2 .8954305 2 2v21.773c-4.126-1.259-8.211-.653-12.371.65l-.024.007c-8.227 2.582-15.946 7.5-23.6 4.777zm-3 28.051c.64368555.3500748 1.31213921.6525501 2 .905v4.31c0 .5522847.44771525 1 1 1s1-.4477153 1-1v-3.683c.65902788.1501152 1.32709602.2573402 2 .321v2.08c0 .5522847.44771525 1 1 1 .5522847 0 1-.4477153 1-1v-1.984c.6686199-.0139005 1.3361234-.0612932 2-.142v1.854c0 .5522847.4477153 1 1 1s1-.4477153 1-1v-2.175c.668-.136 1.335-.3 2-.484v1.671c0 .5522847.4477153 1 1 1s1-.4477153 1-1v-2.272c.669-.219 1.335-.455 2-.7v3.56c0 .5522847.4477153 1 1 1s1-.4477153 1-1v-4.312c.456-.176.9106667-.3533333 1.364-.532l.636-.249v1.54c0 .5522847.4477153 1 1 1s1-.4477153 1-1v-2.31c.67-.252 1.3366667-.4916667 2-.719v1.618c0 .5522847.4477153 1 1 1s1-.4477153 1-1v-2.258c.6666667-.196 1.3333333-.3673333 2-.514v1.787c0 .5522847.4477153 1 1 1s1-.4477153 1-1v-2.137c.6632689-.088787 1.3309712-.1405339 2-.155v4.016c0 .5522847.4477153 1 1 1s1-.4477153 1-1v-3.908c1.9435198.2227751 3.8179055.8542727 5.5 1.853.2575899.1837513.4361941.4580873.5.768v7.217c-7.051-3.835-13.995-1.3-21.364 1.583-6.968 2.726-13.548 5.3-20.131 1.436-.25932354-.1829979-.43974982-.4573888-.505-.768z"/><circle id="Oval" cx="42" cy="44" r="1"/><path id="Shape" d="m10 23h16c.5522847 0 1-.4477153 1-1s-.4477153-1-1-1h-16c-.55228475 0-1 .4477153-1 1s.44771525 1 1 1z"/><path id="Shape" d="m32 29h4c1.6568542 0 3-1.3431458 3-3v-4c0-1.6568542-1.3431458-3-3-3h-4c-1.6568542 0-3 1.3431458-3 3v4c0 1.6568542 1.3431458 3 3 3zm-1-7c0-.5522847.4477153-1 1-1h4c.5522847 0 1 .4477153 1 1v4c0 .5522847-.4477153 1-1 1h-4c-.5522847 0-1-.4477153-1-1z"/><path id="Shape" d="m10 35h16c.5522847 0 1-.4477153 1-1s-.4477153-1-1-1h-16c-.55228475 0-1 .4477153-1 1s.44771525 1 1 1z"/><path id="Shape" d="m10 27h8c.5522847 0 1-.4477153 1-1s-.4477153-1-1-1h-8c-.55228475 0-1 .4477153-1 1s.44771525 1 1 1z"/><path id="Shape" d="m19 38c0-.5522847-.4477153-1-1-1h-8c-.55228475 0-1 .4477153-1 1s.44771525 1 1 1h8c.5522847 0 1-.4477153 1-1z"/><path id="Shape" d="m30 35c.5522847 0 1-.4477153 1-1s.4477153-1 1-1h4c.5522847 0 1 .4477153 1 1s.4477153 1 1 1 1-.4477153 1-1c0-1.6568542-1.3431458-3-3-3h-4c-1.6568542 0-3 1.3431458-3 3 0 .5522847.4477153 1 1 1z"/></g></g></svg>