<svg id="Layer_1" enable-background="new 0 0 512 512" height="512" viewBox="0 0 512 512" width="512" xmlns="http://www.w3.org/2000/svg"><g><path d="m184.084 403.604h-36.215c-.149-3.028-.106-6.068.13-9.1 22.644-18.849 33.664-35.458 33.664-50.715 0-1.655-.067-3.277-.207-4.916-.474-4.839-.645-21.163-.413-37.534 11.919-6.004 20.116-18.363 20.116-32.602 0-11.224-5.253-21.768-13.851-28.607 1.08-2.79 1.646-5.779 1.646-8.827 0-13.474-10.955-24.437-24.42-24.437-.759 0-1.513.034-2.261.103-5.083-8.888-14.65-14.656-25.237-14.656-6.729 0-13.099 2.295-18.18 6.379-5.081-4.084-11.451-6.379-18.179-6.379-8.554 0-16.5 3.725-21.946 10.028-2.15-.529-4.366-.801-6.589-.801-15.193 0-27.553 12.369-27.553 27.572 0 4.623 1.18 9.153 3.356 13.163-7.165 6.816-11.391 16.386-11.391 26.462 0 14.241 8.198 26.601 20.118 32.604.232 16.375.061 32.718-.42 37.641-.133 1.512-.2 3.129-.2 4.806 0 15.259 11.019 31.867 33.662 50.711.236 3.032.279 6.074.13 9.105h-36.218c-29.569 0-53.626 24.077-53.626 53.67 0 2.569 1.315 4.96 3.486 6.335 11.954 7.574 24.695 13.985 37.871 19.055.886.341 1.796.502 2.692.502 3.013 0 5.854-1.829 7.001-4.809 1.488-3.866-.44-8.206-4.306-9.693-10.907-4.197-21.496-9.383-31.533-15.44 2.029-19.426 18.483-34.621 38.416-34.621h36.479c1.311 5.067 3.951 9.714 7.747 13.513 5.609 5.615 13.068 8.708 21.003 8.708 13.788 0 25.412-9.452 28.742-22.22h36.487c19.933 0 36.387 15.194 38.416 34.621-31.208 18.836-66.946 28.771-103.641 28.771-13.748 0-27.482-1.396-40.821-4.148-4.054-.835-8.024 1.772-8.861 5.83-.837 4.057 1.773 8.024 5.83 8.861 14.334 2.958 29.088 4.458 43.853 4.458 41 0 80.892-11.545 115.365-33.386 2.17-1.375 3.486-3.766 3.486-6.335-.002-29.595-24.058-53.672-53.628-53.672zm-121.891-153.407c2.038-1.194 3.395-3.279 3.66-5.626.266-2.347-.589-4.683-2.309-6.303-2.552-2.405-3.958-5.656-3.958-9.155 0-6.932 5.631-12.572 12.553-12.572 2.087 0 4.073.496 5.901 1.474 1.765.944 3.834 1.144 5.745.555 1.912-.589 3.51-1.917 4.438-3.69 2.442-4.667 7.213-7.566 12.451-7.566 4.791 0 9.208 2.409 11.815 6.445 1.382 2.138 3.754 3.429 6.299 3.429h.129c2.545 0 4.917-1.291 6.299-3.429 2.608-4.036 7.026-6.445 11.816-6.445 6.337 0 11.918 4.271 13.572 10.385.568 2.1 2.02 3.85 3.979 4.796 1.958.945 4.231.994 6.229.134 1.173-.505 2.423-.762 3.718-.762 5.194 0 9.42 4.233 9.42 9.437 0 2.322-.849 4.552-2.389 6.28-1.57 1.761-2.22 4.158-1.754 6.471.465 2.313 1.992 4.271 4.12 5.288 7.429 3.548 12.229 11.161 12.229 19.396 0 11.84-9.621 21.473-21.446 21.473-8.806 0-16.851-5.526-20.018-13.75-.846-2.197-2.675-3.87-4.939-4.516-.677-.194-1.37-.289-2.059-.289-1.613 0-3.204.521-4.521 1.515-4.15 3.134-9.102 4.791-14.32 4.791-5.217 0-10.169-1.657-14.319-4.791-1.879-1.419-4.315-1.874-6.58-1.227-2.264.647-4.093 2.319-4.939 4.517-3.167 8.225-11.212 13.75-20.019 13.75-11.825 0-21.445-9.633-21.445-21.473.002-7.591 4.079-14.696 10.642-18.542zm56.662 175.628c-3.925 0-7.615-1.53-10.391-4.309-2.669-2.672-4.186-6.189-4.3-9.95.967-7.21 1.019-14.536.153-21.784-.231-1.938-1.21-3.71-2.727-4.939-25.241-20.442-30.539-33.609-30.539-41.055 0-1.241.048-2.417.136-3.419.553-5.645.676-21.007.532-35.182.425.015.851.023 1.28.023 12.011 0 23.188-6.047 29.915-15.659 4.965 2.246 10.361 3.41 15.942 3.41s10.978-1.164 15.942-3.41c6.726 9.611 17.903 15.659 29.915 15.659.429 0 .857-.008 1.282-.023-.144 14.169-.021 29.506.524 35.055.096 1.123.144 2.316.144 3.547 0 7.445-5.299 20.612-30.542 41.061-1.517 1.229-2.495 3.001-2.727 4.939-.864 7.248-.813 14.571.154 21.777-.245 7.904-6.742 14.259-14.693 14.259z"/><path d="m494.915 418.027c-5.956-14.456-11.042-88.702-12.864-153.116.08-19.828-6.132-36.17-18.467-48.573-15.408-15.492-40.424-24.024-70.44-24.024s-55.032 8.532-70.44 24.025c-12.335 12.404-18.548 28.745-18.466 48.574-1.821 64.411-6.906 138.652-12.863 153.114-10.506 9.804-17.085 23.771-17.085 39.248 0 2.569 1.315 4.96 3.486 6.335 34.472 21.841 74.364 33.386 115.364 33.386 14.764 0 29.518-1.5 43.853-4.458 4.057-.837 6.667-4.804 5.83-8.861-.838-4.057-4.809-6.668-8.861-5.83-13.34 2.752-27.074 4.148-40.821 4.148-36.695 0-72.433-9.935-103.641-28.771 2.029-19.426 18.483-34.621 38.416-34.621h36.479c1.311 5.067 3.952 9.714 7.747 13.513 5.609 5.615 13.068 8.708 21.003 8.708 13.788 0 25.411-9.452 28.741-22.22h36.488c19.933 0 36.387 15.194 38.416 34.621-10.037 6.057-20.625 11.243-31.533 15.44-3.866 1.487-5.794 5.827-4.307 9.693 1.147 2.98 3.988 4.809 7.002 4.809.896 0 1.806-.162 2.691-.502 13.177-5.07 25.918-11.481 37.871-19.055 2.17-1.375 3.485-3.766 3.485-6.335.001-15.477-6.578-29.444-17.084-39.248zm-101.77 7.798c-3.925 0-7.615-1.53-10.391-4.309-2.669-2.671-4.186-6.189-4.301-9.949.967-7.209 1.019-14.535.153-21.785-.231-1.938-1.21-3.71-2.727-4.939-25.242-20.443-30.54-33.609-30.54-41.055 0-1.237.048-2.413.136-3.419.556-5.678.679-21.189.53-35.434h45.64c8.923 0 16.947-3.927 22.436-10.145 5.49 6.218 13.513 10.145 22.436 10.145h3.769c-.148 14.234-.027 29.719.521 35.31.096 1.12.145 2.312.145 3.544 0 7.445-5.299 20.611-30.542 41.061-1.518 1.229-2.495 3.001-2.727 4.939-.864 7.247-.813 14.57.153 21.776-.243 7.905-6.74 14.26-14.691 14.26zm29.014-22.221c-.149-3.028-.106-6.068.13-9.1 22.645-18.849 33.664-35.459 33.664-50.715 0-1.657-.067-3.28-.208-4.915-.511-5.217-.669-23.746-.352-41.304h-.001c.001-.045.002-.09.002-.135 0-4.142-3.357-7.5-7.5-7.5h-11.376c-8.236 0-14.937-6.71-14.937-14.958 0-4.142-3.357-7.5-7.5-7.5s-7.5 3.358-7.5 7.5c0 8.248-6.7 14.958-14.936 14.958h-53.247c-4.143 0-7.5 3.358-7.5 7.5 0 .045.001.091.002.136h-.001c.318 17.566.16 36.109-.359 41.411-.133 1.516-.2 3.133-.2 4.806 0 15.258 11.019 31.867 33.662 50.711.236 3.033.279 6.075.13 9.105h-36.216c-6.567 0-12.861 1.188-18.681 3.359 6.79-40.062 9.461-122.59 10.002-141.752.002-.084.003-.168.003-.252-.087-15.748 4.657-28.547 14.101-38.043 12.572-12.641 33.811-19.602 59.805-19.602s47.233 6.961 59.805 19.602c9.443 9.496 14.188 22.295 14.102 38.043 0 .084.001.168.003.252.01.347 1.004 35.083 3.249 71.743 2.194 35.833 4.513 57.065 6.669 69.978-5.797-2.152-12.062-3.328-18.597-3.328z"/><path d="m317.365 115.648c-1.933-31.162-26.891-56.121-58.052-58.055-17.343-1.082-33.823 4.856-46.446 16.721-12.441 11.692-19.576 28.187-19.576 45.255 0 12.407 10.093 22.5 22.5 22.5s22.5-10.093 22.5-22.5c0-4.769 1.916-9.195 5.394-12.464 3.469-3.261 8.029-4.894 12.836-4.598 8.412.522 15.409 7.519 15.931 15.929.479 7.729-4.067 14.66-11.313 17.247-16.897 6.031-28.25 21.915-28.25 39.524 0 12.407 10.093 22.5 22.5 22.5 11.631 0 21.229-8.872 22.384-20.204 25.052-9.689 41.267-34.889 39.592-61.855zm-46.141 48.288c-5.063 1.807-8.334 6.231-8.334 11.271 0 4.136-3.364 7.5-7.5 7.5s-7.5-3.364-7.5-7.5c0-11.286 7.351-21.492 18.293-25.397 13.603-4.855 22.139-17.836 21.241-32.302-.981-15.824-14.147-28.989-29.976-29.972-.691-.042-1.378-.063-2.063-.063-8.22 0-15.958 3.049-21.973 8.703-6.527 6.134-10.121 14.442-10.121 23.395 0 4.136-3.364 7.5-7.5 7.5s-7.5-3.364-7.5-7.5c0-12.945 5.412-25.456 14.848-34.325 9.574-8.998 22.079-13.501 35.241-12.68 23.626 1.467 42.548 20.389 44.014 44.014 1.296 20.869-11.521 40.343-31.17 47.356z"/><path d="m289.697 293.486c-.788-4.065-4.713-6.722-8.791-5.934-8.148 1.581-16.528 2.383-24.906 2.383-12.657 0-25.163-1.814-37.171-5.391-3.973-1.185-8.146 1.077-9.329 5.047s1.077 8.146 5.047 9.329c13.399 3.991 27.346 6.015 41.453 6.015 9.335 0 18.676-.894 27.764-2.657 4.066-.789 6.722-4.725 5.933-8.792z"/><path d="m167.321 64.958c24.139-22.541 55.633-34.954 88.679-34.954 71.663 0 129.966 58.302 129.966 129.966 0 3.229-.12 6.497-.357 9.713-.305 4.131 2.797 7.727 6.928 8.031.188.014.374.021.56.021 3.892 0 7.181-3.005 7.472-6.949.265-3.582.398-7.221.398-10.816 0-79.935-65.031-144.966-144.966-144.966-36.86 0-71.99 13.847-98.916 38.991-3.027 2.827-3.19 7.573-.363 10.6 2.827 3.029 7.572 3.19 10.599.363z"/><path d="m119.288 182.035c.263 0 .528-.014.794-.042 4.12-.434 7.107-4.125 6.674-8.244-.479-4.544-.721-9.18-.721-13.78 0-26.045 7.674-51.17 22.191-72.66 2.319-3.433 1.416-8.095-2.016-10.414-3.433-2.319-8.095-1.416-10.414 2.016-16.199 23.979-24.762 52.008-24.762 81.057 0 5.122.271 10.287.803 15.35.407 3.854 3.661 6.717 7.451 6.717z"/><path d="m255.388 212.171c-12.408 0-22.502 10.094-22.502 22.501 0 12.408 10.094 22.502 22.502 22.502s22.501-10.094 22.501-22.502c.001-12.407-10.093-22.501-22.501-22.501zm0 30.003c-4.137 0-7.502-3.365-7.502-7.502 0-4.136 3.365-7.501 7.502-7.501 4.136 0 7.501 3.365 7.501 7.501.001 4.137-3.365 7.502-7.501 7.502z"/></g></svg>